<?xml version="1.0" standalone="no"?>
<!DOCTYPE svg PUBLIC "-//W3C//DTD SVG 20010904//EN"
 "http://www.w3.org/TR/2001/REC-SVG-20010904/DTD/svg10.dtd">
<svg version="1.0" xmlns="http://www.w3.org/2000/svg"
 width="1500.000000pt" height="1586.000000pt" viewBox="0 0 1500.000000 1586.000000"
 preserveAspectRatio="xMidYMid meet">

<g transform="translate(0.000000,1586.000000) scale(0.100000,-0.100000)"
fill="#000000" stroke="none">
<path d="M7540 14103 c-631 -22 -1264 -154 -1810 -377 -143 -58 -443 -207
-650 -322 -172 -96 -143 -77 -475 -302 -407 -275 -885 -753 -1211 -1212 -387
-544 -671 -1161 -822 -1785 -114 -467 -152 -791 -152 -1281 0 -374 19 -599 81
-944 168 -940 624 -1872 1252 -2560 328 -358 625 -620 982 -862 261 -177 599
-365 835 -463 36 -15 72 -33 80 -39 8 -7 43 -23 77 -35 52 -18 70 -20 118 -13
59 10 70 4 60 -27 -5 -17 12 -25 147 -69 260 -85 456 -135 697 -178 744 -132
1540 -105 2240 77 86 23 170 44 186 49 121 31 488 164 625 227 30 14 73 33 95
43 116 50 337 166 388 203 31 23 114 83 184 132 109 78 181 135 293 231 55 48
118 95 168 126 72 44 162 117 317 257 72 64 159 141 195 171 134 112 247 221
300 289 30 38 60 70 65 70 11 1 41 36 140 168 131 173 173 238 235 358 34 66
70 131 80 145 24 36 102 182 170 318 50 102 89 190 170 382 26 61 74 193 95
260 9 30 23 60 31 66 17 14 53 112 104 284 12 41 26 85 31 98 15 39 39 191 39
252 0 82 11 180 20 175 18 -11 23 44 30 328 5 163 11 325 14 360 18 188 11
491 -14 649 -5 34 -15 97 -20 138 -21 156 -60 380 -80 465 -5 22 -21 87 -34
145 -57 243 -185 620 -292 856 -102 228 -251 509 -360 677 -35 54 -71 112 -80
130 -19 36 -171 240 -248 332 -28 34 -90 108 -137 166 -182 219 -464 493 -713
690 -55 44 -108 86 -116 92 -8 7 -60 44 -115 83 -872 623 -1911 962 -2990 977
-88 1 -189 1 -225 0z m408 -1273 c846 -60 1594 -350 2257 -877 113 -89 386
-360 485 -479 30 -36 67 -78 81 -93 15 -14 29 -36 33 -48 4 -13 11 -23 15 -23
11 0 71 -61 71 -72 0 -5 31 -48 68 -96 311 -397 567 -993 677 -1572 76 -402
86 -927 25 -1331 -67 -444 -191 -833 -391 -1224 -76 -149 -118 -226 -130 -239
-5 -6 -9 -16 -9 -23 0 -17 -109 -190 -115 -183 -3 3 -21 -19 -40 -47 -20 -29
-39 -53 -43 -53 -4 0 -258 251 -564 557 l-557 557 -22 -28 c-28 -36 -113 -76
-159 -76 -19 0 -54 9 -78 20 -45 21 -182 152 -206 198 -40 78 -27 159 36 228
l42 45 -58 57 -57 57 -19 -25 c-50 -63 -196 -268 -284 -398 -105 -156 -287
-512 -327 -640 l-23 -72 537 -536 c295 -295 537 -539 537 -543 0 -3 21 -28 45
-55 25 -27 45 -53 45 -58 0 -6 10 -23 21 -40 16 -22 19 -35 12 -50 -9 -20 4
-99 19 -113 11 -12 -33 -80 -80 -123 -81 -74 -355 -245 -386 -241 -12 2 -25
-3 -126 -48 -141 -64 -389 -149 -576 -198 -328 -86 -646 -125 -1012 -125 -370
0 -661 36 -1007 126 -540 139 -1072 406 -1496 751 -66 54 -142 114 -168 134
-53 41 -278 277 -340 356 -22 28 -48 57 -59 65 -51 36 -306 400 -418 598 -255
447 -433 982 -500 1500 -25 193 -26 222 -20 485 6 310 23 493 66 725 84 454
255 912 481 1291 76 128 187 297 201 305 6 4 265 -248 577 -560 311 -311 569
-566 574 -566 4 0 7 8 7 18 0 36 61 251 100 355 98 261 253 512 437 708 l76
80 -75 76 c-67 67 -78 74 -96 64 -31 -16 -119 -13 -160 6 -34 16 -141 118
-189 179 -29 38 -40 113 -24 169 l11 40 -165 165 c-91 91 -165 170 -165 176 0
19 331 234 360 234 7 0 21 6 29 14 31 27 299 155 456 217 88 35 162 66 165 70
9 11 141 56 275 92 434 119 898 167 1323 137z m1958 -7227 c-11 -11 -17 4 -9
23 7 18 8 18 11 1 2 -10 1 -21 -2 -24z m-4066 -1543 c0 -5 -11 -10 -24 -10
-14 0 -28 5 -31 10 -4 6 7 10 24 10 17 0 31 -4 31 -10z"/>
<path d="M6839 6636 c-2 -2 -3 -43 -1 -90 4 -98 -9 -90 127 -78 l70 5 -40 12
-40 12 -1 61 c0 60 1 62 25 63 15 1 4 5 -24 9 -58 9 -110 12 -116 6z"/>
<path d="M7430 6632 c-41 -3 -50 -6 -35 -12 16 -7 12 -9 -20 -10 -22 -1 -32
-4 -22 -7 22 -6 12 -23 -14 -23 -10 0 -19 -4 -19 -10 0 -5 -10 -11 -22 -11
-17 -1 -19 -2 -5 -6 9 -2 17 -8 17 -13 0 -11 -27 -20 -114 -35 -126 -23 -11
-17 310 15 323 33 390 40 649 64 94 9 192 21 218 26 27 6 83 10 125 10 54 0
72 3 62 10 -15 9 -1010 11 -1130 2z"/>
<path d="M8470 6489 c-36 -4 -180 -20 -320 -33 -140 -14 -289 -30 -330 -36
-41 -5 -151 -17 -245 -25 -556 -49 -739 -71 -771 -92 -13 -8 -24 -18 -25 -22
0 -3 -2 -16 -4 -27 -3 -13 4 -29 15 -39 11 -10 17 -22 14 -26 -3 -5 1 -9 9 -9
20 0 27 -22 27 -86 l0 -54 90 0 c49 0 172 9 272 20 271 29 439 46 783 80 171
17 373 38 450 46 77 9 146 16 153 17 8 0 12 22 12 74 0 52 4 73 13 73 25 0 80
37 83 55 2 10 5 29 8 41 13 51 -65 65 -234 43z m-85 -192 c-13 -9 -36 -12 -65
-8 l-45 5 40 7 c22 3 51 7 65 8 23 1 24 0 5 -12z m-19 -36 c-3 -5 -15 -7 -26
-4 -28 7 -25 13 6 13 14 0 23 -4 20 -9z m9 -31 c3 -5 -3 -10 -15 -10 -12 0
-18 5 -15 10 3 6 10 10 15 10 5 0 12 -4 15 -10z m-1265 -59 c0 -5 -7 -12 -16
-15 -22 -9 -24 -8 -24 9 0 8 9 15 20 15 11 0 20 -4 20 -9z"/>
<path d="M7058 6483 c12 -2 32 -2 45 0 12 2 2 4 -23 4 -25 0 -35 -2 -22 -4z"/>
<path d="M8485 6059 c-44 -5 -154 -16 -245 -24 -91 -8 -226 -22 -300 -30 -74
-8 -227 -24 -340 -35 -113 -11 -286 -29 -385 -40 -99 -11 -207 -22 -240 -25
-82 -7 -156 -27 -162 -42 -3 -7 -8 -11 -12 -8 -4 2 -5 -10 -3 -28 3 -18 11
-36 19 -40 7 -5 10 -13 7 -19 -5 -7 -2 -9 8 -5 12 4 18 -3 23 -31 7 -38 63
-152 74 -152 4 0 24 9 46 20 26 13 59 20 96 20 31 0 225 18 430 41 206 22 453
49 549 59 96 10 245 27 330 36 85 10 167 17 181 16 24 -1 27 3 33 45 3 25 6
58 6 72 0 23 6 28 44 39 38 10 46 17 60 53 17 41 16 42 -5 65 -25 27 -63 29
-214 13z"/>
<path d="M8415 5619 c-33 -4 -134 -14 -225 -23 -91 -9 -176 -18 -190 -21 -14
-3 -72 -9 -130 -15 -113 -10 -217 -21 -430 -45 -74 -9 -197 -22 -274 -30 -151
-15 -176 -26 -176 -76 0 -16 7 -32 18 -38 15 -9 15 -12 2 -21 -11 -8 17 -10
100 -9 202 2 301 -1 296 -9 -5 -9 31 -46 47 -49 15 -2 72 -25 101 -40 16 -9
36 -17 45 -18 9 -1 28 -7 43 -13 37 -15 150 -11 163 6 6 8 29 16 50 19 22 2
46 12 53 21 6 9 27 21 44 27 18 5 38 20 44 33 6 13 14 23 18 22 9 -2 115 20
156 32 19 5 78 30 130 55 71 34 115 48 175 56 79 10 130 31 119 48 -3 5 -2 15
3 22 14 22 12 41 -4 60 -18 19 -48 20 -178 6z"/>
<path d="M7385 5290 c4 -6 11 -8 16 -5 14 9 11 15 -7 15 -8 0 -12 -5 -9 -10z"/>
<path d="M0 500 l0 -500 7500 0 7500 0 0 499 0 499 -7500 1 -7500 1 0 -500z"/>
</g>
</svg>
