<?xml version="1.0" standalone="no"?>
<!DOCTYPE svg PUBLIC "-//W3C//DTD SVG 20010904//EN"
 "http://www.w3.org/TR/2001/REC-SVG-20010904/DTD/svg10.dtd">
<svg version="1.0" xmlns="http://www.w3.org/2000/svg"
 width="206.000000pt" height="196.000000pt" viewBox="0 0 206.000000 196.000000"
 preserveAspectRatio="xMidYMid meet">

<g transform="translate(0.000000,196.000000) scale(0.100000,-0.100000)"
fill="#000000" stroke="none">
<path d="M835 1745 c-138 -31 -245 -87 -346 -182 -163 -154 -236 -311 -246
-528 -7 -153 10 -232 79 -375 44 -92 61 -116 142 -196 69 -68 110 -100 171
-131 225 -116 489 -118 710 -5 73 37 107 63 181 138 78 77 99 107 142 192 69
138 86 219 79 381 -5 136 -17 182 -81 315 -88 182 -297 344 -503 390 -86 19
-244 20 -328 1z m340 -147 c71 -24 187 -83 209 -107 14 -15 4 -28 -124 -153
l-138 -137 -9 37 -9 37 -103 0 -103 0 -17 -55 c-10 -30 -38 -94 -63 -141 -39
-74 -47 -98 -53 -167 l-7 -81 -114 -111 c-63 -61 -120 -110 -127 -108 -24 8
-86 114 -113 193 -50 144 -35 334 36 476 37 72 127 176 205 234 137 102 365
138 530 83z m356 -286 c27 -48 54 -113 65 -155 71 -290 -57 -575 -318 -707
-187 -94 -383 -92 -583 7 -50 25 -95 60 -95 74 0 4 26 31 57 61 90 84 107 101
124 128 l16 25 45 -41 c56 -52 104 -68 178 -61 130 11 210 115 210 273 0 48
-6 74 -31 122 l-31 62 69 77 c87 97 224 224 237 220 5 -2 31 -40 57 -85z"/>
<path d="M946 1435 c-26 -24 -36 -40 -32 -51 5 -14 16 -16 68 -10 33 3 74 6
89 6 19 0 29 5 29 15 0 8 -7 15 -15 15 -8 0 -27 14 -42 30 -34 39 -51 38 -97
-5z"/>
<path d="M911 1341 c-8 -5 -11 -16 -8 -25 9 -23 185 -24 194 -1 3 9 2 19 -2
23 -11 11 -168 14 -184 3z"/>
<path d="M685 1090 c-9 -15 4 -30 26 -30 12 0 19 7 19 20 0 21 -33 29 -45 10z"/>
<path d="M665 961 c-9 -16 3 -31 26 -31 14 0 19 6 17 17 -4 20 -33 29 -43 14z"/>
<path d="M654 845 c-8 -20 4 -35 27 -35 14 0 19 7 19 25 0 18 -5 25 -20 25
-11 0 -23 -7 -26 -15z"/>
<path d="M1250 1080 c0 -16 5 -21 23 -18 12 2 22 10 22 18 0 8 -10 16 -22 18
-18 3 -23 -2 -23 -18z"/>
<path d="M1290 975 c-14 -17 -5 -35 19 -35 25 0 32 10 20 31 -12 23 -22 24
-39 4z"/>
<path d="M1286 844 c-8 -21 1 -34 24 -34 19 0 34 25 24 41 -9 15 -41 10 -48
-7z"/>
<path d="M1256 695 c-11 -28 -7 -35 20 -35 21 0 25 4 22 22 -4 27 -33 36 -42
13z"/>
<path d="M1141 601 c-13 -23 8 -45 33 -35 22 8 20 31 -4 44 -15 8 -21 6 -29
-9z"/>
<path d="M815 600 c-4 -7 -3 -16 3 -22 14 -14 45 -2 40 15 -6 16 -34 21 -43 7z"/>
<path d="M976 575 c-8 -22 1 -35 25 -35 15 0 20 6 17 22 -4 27 -33 36 -42 13z"/>
</g>
</svg>
