<?xml version="1.0" standalone="no"?>
<!DOCTYPE svg PUBLIC "-//W3C//DTD SVG 20010904//EN"
 "http://www.w3.org/TR/2001/REC-SVG-20010904/DTD/svg10.dtd">
<svg version="1.0" xmlns="http://www.w3.org/2000/svg"
 width="1024.000000pt" height="1024.000000pt" viewBox="0 0 1024.000000 1024.000000"
 preserveAspectRatio="xMidYMid meet">

<g transform="translate(0.000000,1024.000000) scale(0.100000,-0.100000)"
fill="#000000" stroke="none">
<path d="M4791 9880 c-885 -56 -1785 -387 -2511 -925 -342 -254 -723 -632
-977 -970 -376 -502 -662 -1099 -812 -1700 -21 -86 -93 -466 -119 -630 -24
-151 -23 -823 1 -1033 69 -607 223 -1128 488 -1653 458 -908 1212 -1660 2119
-2114 1266 -634 2749 -674 4046 -110 321 140 687 353 957 557 336 254 709 627
954 953 457 609 761 1317 888 2069 74 437 85 955 29 1396 -133 1054 -622 2047
-1370 2781 -261 255 -449 410 -717 588 -571 380 -1199 628 -1877 740 -276 46
-792 70 -1099 51z m581 -720 c551 -37 1036 -164 1523 -399 345 -167 618 -346
905 -595 142 -124 339 -323 445 -451 22 -26 45 -53 50 -59 11 -11 154 -207
193 -263 l22 -31 -157 -85 c-87 -47 -219 -116 -293 -155 -139 -71 -651 -342
-895 -472 -38 -21 -124 -66 -190 -100 -66 -35 -187 -98 -268 -142 l-148 -79
-47 39 c-79 65 -317 228 -639 437 -2 1 -5 42 -9 91 -26 416 -131 753 -325
1044 -81 122 -271 314 -396 398 -172 117 -372 203 -588 253 -69 16 -137 22
-296 26 l-207 5 -6 29 c-7 38 -38 45 -144 30 -94 -13 -112 -22 -112 -55 0 -36
-21 -52 -102 -75 -43 -12 -97 -34 -120 -50 -24 -15 -59 -34 -78 -41 -19 -8
-51 -23 -70 -35 -19 -12 -51 -27 -71 -34 -21 -7 -85 -54 -149 -111 -106 -95
-145 -124 -105 -80 10 11 13 20 7 20 -5 0 -57 -45 -113 -101 -57 -55 -109
-103 -115 -107 -18 -10 -206 -182 -311 -284 -96 -93 -141 -159 -181 -263 -96
-248 -113 -526 -52 -825 35 -169 34 -167 98 -199 284 -143 622 -240 908 -259
l131 -9 74 -59 c83 -66 383 -262 529 -346 356 -204 658 -235 1040 -108 52 18
114 43 137 57 23 13 47 22 52 18 6 -3 27 1 47 10 20 8 48 15 63 15 15 0 35 6
46 13 20 14 85 39 85 33 0 -6 -128 -79 -245 -141 -60 -32 -135 -72 -165 -90
-30 -18 -118 -65 -195 -105 -163 -84 -617 -323 -855 -450 -91 -48 -208 -110
-260 -137 -260 -136 -678 -357 -705 -373 -16 -9 -86 -47 -155 -82 -106 -56
-1112 -587 -1478 -780 -62 -33 -115 -58 -118 -56 -11 11 -91 237 -134 378
-117 380 -169 734 -170 1137 0 332 24 567 96 917 27 131 32 150 106 376 194
595 531 1135 993 1594 178 176 445 388 664 526 56 36 126 80 154 98 85 55 381
199 529 258 570 226 1178 323 1770 284z m3544 -2580 c116 -301 202 -654 246
-1010 18 -143 17 -728 0 -875 -49 -403 -170 -857 -306 -1150 -264 -563 -490
-891 -882 -1277 -411 -405 -872 -700 -1422 -907 -302 -114 -782 -206 -1265
-242 -949 -71 -1955 259 -2747 901 -225 182 -488 453 -657 676 -121 160 -156
216 -141 225 7 5 78 44 158 85 80 42 172 91 205 109 33 18 107 57 165 88 213
112 642 338 895 472 143 76 319 168 390 206 72 37 222 117 335 177 113 60 206
108 208 107 2 -2 -10 -41 -26 -87 -17 -47 -42 -136 -56 -199 -27 -123 -76
-445 -76 -503 0 -29 -4 -37 -22 -41 -453 -100 -676 -187 -960 -373 -276 -182
-539 -410 -586 -510 -15 -30 -15 -36 -1 -60 23 -42 62 -39 212 12 342 117 683
171 931 146 150 -15 167 -20 485 -144 300 -118 376 -141 514 -155 216 -22 447
22 717 137 289 122 380 145 585 145 227 0 351 -23 646 -124 133 -45 197 -61
260 -67 173 -15 334 13 460 77 41 21 112 58 158 82 l85 44 120 -1 c71 -1 174
-10 249 -23 152 -25 151 -25 171 -5 34 34 20 72 -52 143 -200 196 -779 505
-1250 667 l-84 29 6 54 c20 167 29 339 30 521 0 185 -2 213 -22 285 -34 117
-77 190 -162 275 -111 111 -247 183 -440 235 -170 45 -287 58 -518 58 l-214 0
129 66 c70 37 205 108 298 158 94 50 251 132 350 183 99 51 198 103 220 115
74 42 159 87 530 282 204 107 402 212 440 233 39 21 162 86 275 145 113 59
309 163 435 230 127 67 370 195 540 285 171 90 328 174 350 186 22 12 43 19
47 16 4 -4 23 -50 44 -102z"/>
</g>
</svg>
