<?xml version="1.0" standalone="no"?>
<!DOCTYPE svg PUBLIC "-//W3C//DTD SVG 20010904//EN"
 "http://www.w3.org/TR/2001/REC-SVG-20010904/DTD/svg10.dtd">
<svg version="1.0" xmlns="http://www.w3.org/2000/svg"
 width="507.000000pt" height="452.000000pt" viewBox="0 0 507.000000 452.000000"
 preserveAspectRatio="xMidYMid meet">

<g transform="translate(0.000000,452.000000) scale(0.100000,-0.100000)"
fill="#000000" stroke="none">
<path d="M2125 4345 c-189 -27 -334 -66 -460 -125 -34 -16 -100 -39 -146 -51
-82 -21 -173 -64 -214 -100 -11 -10 -23 -17 -27 -16 -10 3 -129 -97 -263 -219
-303 -277 -522 -632 -620 -1007 -38 -145 -73 -332 -85 -449 -10 -101 -9 -117
24 -320 52 -317 101 -479 206 -689 148 -295 353 -543 605 -731 66 -49 129 -98
141 -108 47 -43 245 -141 359 -179 281 -92 390 -115 625 -132 333 -25 698 44
1005 190 160 76 246 127 368 219 376 282 654 696 767 1141 61 243 69 351 51
674 -16 286 -67 485 -191 744 -304 636 -916 1073 -1630 1162 -112 14 -403 12
-515 -4z m575 -300 c456 -89 789 -285 1087 -640 113 -135 232 -347 292 -520
17 -49 35 -99 40 -110 5 -11 20 -74 32 -140 21 -107 24 -146 23 -365 l-1 -245
-41 -157 c-61 -232 -145 -425 -250 -571 l-56 -78 -214 213 c-177 177 -226 232
-287 324 -41 61 -124 167 -186 235 -178 197 -215 299 -189 523 64 553 -206
1016 -579 994 -116 -7 -207 -54 -303 -157 -44 -47 -90 -108 -112 -151 l-38
-72 -289 288 c-159 159 -289 293 -289 299 0 5 33 31 73 56 163 105 307 169
381 169 19 0 36 4 38 8 2 4 28 15 58 24 30 9 93 28 140 43 152 46 220 55 410
51 107 -3 208 -10 260 -21z m-1228 -892 l356 -358 6 -120 c3 -66 9 -170 12
-232 11 -185 -28 -277 -188 -448 -123 -133 -167 -195 -282 -400 -6 -11 -21
-34 -32 -50 -49 -69 -84 -158 -119 -305 -54 -228 -55 -230 -65 -230 -19 0
-157 163 -232 275 -138 207 -231 426 -279 661 -26 128 -36 401 -20 544 39 345
186 686 405 943 37 42 70 77 74 77 4 0 168 -161 364 -357z m1126 -133 c79 -28
150 -75 179 -119 27 -40 32 -118 9 -127 -8 -3 -54 12 -103 34 -48 21 -113 48
-143 58 -75 25 -205 25 -283 0 l-59 -19 -60 60 -60 60 56 27 c93 44 159 56
286 52 85 -3 132 -10 178 -26z m-134 -2665 c-7 -17 -34 -21 -34 -4 0 5 4 8 9
4 5 -3 12 -1 16 5 9 15 15 12 9 -5z"/>
</g>
</svg>
