<?xml version="1.0" standalone="no"?>
<!DOCTYPE svg PUBLIC "-//W3C//DTD SVG 20010904//EN"
 "http://www.w3.org/TR/2001/REC-SVG-20010904/DTD/svg10.dtd">
<svg version="1.0" xmlns="http://www.w3.org/2000/svg"
 width="485.000000pt" height="452.000000pt" viewBox="0 0 485.000000 452.000000"
 preserveAspectRatio="xMidYMid meet">

<g transform="translate(0.000000,452.000000) scale(0.100000,-0.100000)"
fill="#000000" stroke="none">
<path d="M2080 4354 c-104 -13 -244 -38 -310 -56 -164 -44 -413 -137 -470
-175 -19 -13 -41 -23 -50 -23 -16 0 -140 -95 -282 -216 -321 -274 -552 -646
-648 -1047 -16 -67 -35 -175 -43 -240 -12 -102 -12 -121 0 -133 15 -14 9 -39
-7 -29 -17 11 -19 -14 -10 -136 31 -398 106 -656 276 -947 301 -514 820 -866
1429 -968 140 -24 443 -24 588 0 574 93 1060 404 1374 878 126 191 214 392
273 623 136 531 33 1119 -277 1583 -305 456 -774 762 -1323 862 -111 21 -429
35 -520 24z m445 -328 c253 -39 527 -155 741 -313 121 -90 311 -285 381 -392
75 -113 173 -307 207 -409 71 -214 90 -346 83 -604 -4 -172 -9 -220 -31 -311
-62 -265 -174 -496 -330 -684 -54 -66 -73 -79 -54 -38 13 30 35 4 -270 315
l-193 197 -87 6 c-342 22 -555 239 -607 621 -8 60 -57 116 -99 116 -38 0 -80
-24 -94 -54 -11 -26 -34 -139 -36 -183 -1 -16 155 -178 599 -623 l600 -602
-45 -39 c-61 -53 -215 -146 -325 -196 -128 -58 -212 -87 -355 -119 -118 -27
-138 -29 -350 -29 -198 0 -238 3 -330 23 -346 76 -627 228 -861 465 -263 266
-425 586 -479 947 -19 124 -14 397 9 530 45 262 174 550 340 760 l19 24 279
-270 278 -271 130 -12 c144 -14 223 -30 323 -66 36 -13 68 -22 70 -20 2 2
-189 198 -424 435 l-429 432 25 19 c244 192 573 326 885 359 100 11 312 4 430
-14z m-208 -1683 c-9 -9 -19 -14 -23 -11 -10 10 6 28 24 28 15 0 15 -1 -1 -17z
m39 -39 c-3 -9 -6 -18 -6 -20 0 -2 -7 -4 -15 -4 -18 0 -19 6 -2 25 16 19 31
19 23 -1z"/>
<path d="M1335 2854 c-193 -16 -366 -60 -517 -134 -56 -28 -107 -50 -115 -50
-22 0 -33 -46 -33 -141 0 -79 3 -96 29 -147 16 -31 50 -111 76 -177 61 -154
74 -180 123 -235 50 -57 117 -94 219 -121 111 -30 414 -39 528 -15 266 55 424
242 476 565 12 80 31 117 72 141 62 38 148 15 181 -48 8 -16 20 -60 26 -98 37
-241 150 -424 310 -502 120 -58 172 -67 400 -67 181 1 215 4 290 24 131 35
215 91 265 177 22 38 114 251 170 394 15 37 19 155 9 210 -5 22 -15 35 -33 41
-14 6 -55 25 -91 43 -183 95 -402 139 -690 140 -225 0 -289 -10 -490 -77 -153
-51 -156 -51 -280 -51 -123 -1 -128 0 -265 47 -77 26 -176 54 -220 62 -79 15
-343 27 -440 19z m353 -99 c112 -26 221 -116 268 -219 45 -100 47 -245 4 -359
-25 -66 -109 -164 -175 -203 -162 -95 -433 -117 -641 -53 -181 56 -237 117
-264 291 -18 109 -9 319 16 383 34 86 138 143 305 164 115 15 417 12 487 -4z
m1644 5 c111 -22 199 -54 238 -87 62 -54 75 -105 75 -308 0 -152 -3 -178 -24
-243 -35 -106 -92 -153 -246 -202 -88 -28 -321 -39 -427 -20 -185 33 -337 141
-387 276 -66 176 -39 342 77 466 51 55 120 95 197 114 62 15 423 18 497 4z"/>
<path d="M1725 2677 c19 -23 78 -82 131 -131 100 -93 111 -92 55 4 -36 62 -97
121 -153 148 -68 31 -74 28 -33 -21z"/>
<path d="M2566 2253 c30 -135 156 -261 304 -303 30 -9 13 12 -135 160 -93 94
-171 170 -173 170 -1 0 0 -12 4 -27z"/>
</g>
</svg>
